<?xml version="1.0" encoding="iso-8859-1"?>
<!-- Generator: Adobe Illustrator 16.0.0, SVG Export Plug-In . SVG Version: 6.00 Build 0)  -->
<!DOCTYPE svg PUBLIC "-//W3C//DTD SVG 1.1//EN" "http://www.w3.org/Graphics/SVG/1.1/DTD/svg11.dtd">
<svg version="1.1" id="Layer_2" xmlns="http://www.w3.org/2000/svg" xmlns:xlink="http://www.w3.org/1999/xlink" x="0px" y="0px"
	 width="512px" height="512px" viewBox="0 0 512 512" style="enable-background:new 0 0 512 512;" xml:space="preserve">
<path d="M410.045,105.617C369.596,65.326,317.768,44.896,256,44.896c-59.924,0-110.818,20.926-151.27,62.2
	c-39.568,40.446-59.633,89.861-59.633,146.872c0,57.12,19.258,106.825,57.229,147.727c40.119,43.402,91.822,65.408,153.674,65.408
	c2.891,0,5.781-0.023,8.668-0.067v-41.578c-2.887,0.061-5.776,0.103-8.668,0.103c-48.709,0-89.295-17.77-120.621-52.802
	c-29.279-32.989-44.125-72.955-44.125-118.79c0-46.221,15.74-85.809,46.791-117.669C169.566,103.85,209.254,87.396,256,87.396
	c49.002,0,89.748,15.676,121.111,46.595c29.465,28.993,44.404,64.536,44.404,105.64c0,45.003-14.664,80.011-19.156,89.674
	l-54.947,0.027V144.543h-50.768v22.9c-6.383-4.861-14.082-9.067-22.979-12.541c-12.314-4.654-24.383-7.014-35.871-7.014
	c-30.641,0-56.344,12.097-76.396,35.958c-18.471,22.014-27.836,48.259-27.836,78.008c0,27.633,8.813,52.872,26.182,75
	c19.881,25.534,46.133,38.563,78.021,38.728l0.662,0.002c25.625,0,47.818-8.832,66.01-26.255l7.25,21.078h121.586l13.615-27.937
	c13.279-26.55,20.014-61.15,20.014-102.84C466.902,188.305,447.773,143.216,410.045,105.617z M278.041,308.361
	c-10.895,13.098-23.559,19.465-38.721,19.465c-20.01,0-35.455-7.992-47.209-24.423c-9.424-13.246-14.203-27.707-14.203-42.981
	c0-17.038,5.479-32.285,16.281-45.312c12.102-14.545,27.117-21.616,45.9-21.616c11.621,0,23.07,5.177,34.027,15.386
	c13.77,12.833,20.463,29.771,20.463,51.781C294.58,279.121,289.016,295.17,278.041,308.361z"/>
</svg>
